<svg width="25" height="25" viewBox="0 0 25 25" fill="none" xmlns="http://www.w3.org/2000/svg">
<path fill-rule="evenodd" clip-rule="evenodd" d="M0 12.5C0 5.6075 5.6075 0 12.5 0C19.3925 0 25 5.6075 25 12.5C25 19.3925 19.3925 25 12.5 25C5.6075 25 0 19.3925 0 12.5ZM2.65945 12.5004C2.65945 17.9265 7.07408 22.3406 12.4999 22.3406C17.9258 22.3406 22.3404 17.9265 22.3404 12.5004C22.3404 7.07427 17.9258 2.66016 12.4999 2.66016C7.07408 2.66016 2.65945 7.07427 2.65945 12.5004Z" fill="#FFC59E"/>
<path d="M19.0144 12.1141H13.3968V5.3598C13.3968 4.7914 12.936 4.33057 12.3676 4.33057C11.7992 4.33057 11.3384 4.7914 11.3384 5.3598V13.1433C11.3384 13.7117 11.7992 14.1726 12.3676 14.1726H19.0144C19.5828 14.1726 20.0436 13.7117 20.0436 13.1433C20.0436 12.575 19.5828 12.1141 19.0144 12.1141Z" fill="#FFC59E"/>
</svg>
